<?xml version="1.0" encoding="UTF-8"?>
<svg width="24px" height="24px" viewBox="0 0 24 24" version="1.1" xmlns="http://www.w3.org/2000/svg" xmlns:xlink="http://www.w3.org/1999/xlink">
    <title>call</title>
    <g id="Page-1" stroke="none" stroke-width="1" fill="none" fill-rule="evenodd">
        <g id="Iconography" transform="translate(-616.000000, -587.000000)" fill="#000000" fill-rule="nonzero">
            <path d="M636.203518,601.306452 C635.67968,600.763441 635.047833,600.473118 634.378183,600.473118 C633.713934,600.473118 633.076687,600.758065 632.531246,601.301075 L630.82472,602.994624 C630.684309,602.919355 630.543899,602.849462 630.408889,602.77957 C630.214474,602.682796 630.030861,602.591398 629.874249,602.494624 C628.275731,601.483871 626.823023,600.166667 625.429719,598.462366 C624.754669,597.612903 624.301036,596.897849 623.971611,596.172043 C624.414444,595.768817 624.824875,595.349462 625.224504,594.946237 C625.375715,594.795699 625.526927,594.639785 625.678138,594.489247 C626.812222,593.360215 626.812222,591.897849 625.678138,590.768817 L624.203829,589.301075 C624.036416,589.134409 623.863603,588.962366 623.701591,588.790323 C623.377567,588.456989 623.037342,588.112903 622.686316,587.790323 C622.162477,587.274194 621.536031,587 620.877182,587 C620.218333,587 619.581086,587.274194 619.041046,587.790323 C619.035645,587.795699 619.035645,587.795699 619.030245,587.801075 L617.194109,589.645161 C616.502857,590.333333 616.108628,591.172043 616.022222,592.145161 C615.892612,593.715054 616.357047,595.177419 616.713473,596.134409 C617.588338,598.483871 618.895235,600.66129 620.844779,602.994624 C623.210155,605.806452 626.056166,608.026882 629.307207,609.591398 C630.549299,610.177419 632.207222,610.870968 634.059559,610.989247 C634.172968,610.994624 634.291777,611 634.399785,611 C635.647277,611 636.694955,610.553763 637.515816,609.666667 C637.521216,609.655914 637.532017,609.650538 637.537417,609.639785 C637.818238,609.301075 638.142262,608.994624 638.482487,608.666667 C638.714705,608.446237 638.952322,608.215054 639.18454,607.973118 C639.719179,607.419355 640,606.774194 640,606.112903 C640,605.446237 639.713779,604.806452 639.168338,604.268817 L636.203518,601.306452 Z M638.136862,606.967742 C638.131461,606.967742 638.131461,606.973118 638.136862,606.967742 C637.926246,607.193548 637.71023,607.397849 637.478013,607.623656 C637.126987,607.956989 636.770561,608.306452 636.435736,608.698925 C635.890295,609.27957 635.247648,609.553763 634.405185,609.553763 C634.324179,609.553763 634.237773,609.553763 634.156767,609.548387 C632.552848,609.446237 631.062337,608.822581 629.944454,608.290323 C626.887828,606.817204 624.203829,604.725806 621.973463,602.075269 C620.131927,599.865591 618.900635,597.822581 618.085175,595.629032 C617.582938,594.290323 617.399324,593.247312 617.48033,592.263441 C617.534334,591.634409 617.777352,591.112903 618.225585,590.666667 L620.067122,588.833333 C620.331741,588.586022 620.612562,588.451613 620.887983,588.451613 C621.228208,588.451613 621.503628,588.655914 621.676441,588.827957 C621.681842,588.833333 621.687242,588.83871 621.692642,588.844086 C622.022067,589.150538 622.33529,589.467742 622.664714,589.806452 C622.832127,589.978495 623.00494,590.150538 623.177752,590.327957 L624.652062,591.795699 C625.224504,592.365591 625.224504,592.892473 624.652062,593.462366 C624.49545,593.61828 624.344239,593.774194 624.187627,593.924731 C623.733994,594.387097 623.301962,594.817204 622.832127,595.236559 C622.821326,595.247312 622.810525,595.252688 622.805125,595.263441 C622.34069,595.725806 622.427097,596.177419 622.524304,596.483871 C622.529704,596.5 622.535105,596.516129 622.540505,596.532258 C622.923934,597.456989 623.463974,598.327957 624.284835,599.365591 L624.290235,599.370968 C625.780746,601.198925 627.352262,602.623656 629.085791,603.715054 C629.307207,603.854839 629.534024,603.967742 629.75004,604.075269 C629.944454,604.172043 630.128068,604.263441 630.28468,604.360215 C630.306281,604.370968 630.327883,604.387097 630.349484,604.397849 C630.533098,604.489247 630.705911,604.532258 630.884124,604.532258 C631.332357,604.532258 631.613178,604.252688 631.704985,604.16129 L633.551922,602.322581 C633.735535,602.139785 634.027157,601.919355 634.367382,601.919355 C634.702207,601.919355 634.977628,602.129032 635.14504,602.311828 C635.15044,602.317204 635.15044,602.317204 635.155841,602.322581 L638.131461,605.284946 C638.687703,605.833333 638.687703,606.397849 638.136862,606.967742 Z" id="call"></path>
        </g>
    </g>
</svg>