<?xml version="1.0" encoding="UTF-8"?>
<svg width="26px" height="28px" viewBox="0 0 26 28" version="1.1" xmlns="http://www.w3.org/2000/svg" xmlns:xlink="http://www.w3.org/1999/xlink">
    <title>chat</title>
    <g id="Page-1" stroke="none" stroke-width="1" fill="none" fill-rule="evenodd">
        <g id="Iconography" transform="translate(-614.000000, -498.000000)" fill="#000000" fill-rule="nonzero">
            <path d="M637.259616,509.574309 L637.189341,509.574309 L637.189341,507.876282 C637.189341,502.421768 632.706341,498 627.176144,498 C621.645947,498 617.162947,502.421768 617.162947,507.876282 L617.162947,509.574309 L616.741365,509.574309 C615.195452,509.574309 614.000913,510.925766 614.000913,512.485231 L614.000913,516.816924 C613.961976,518.328367 615.172722,519.584775 616.705118,519.623179 C616.717223,519.623511 616.72926,519.62371 616.741365,519.623842 L619.341267,519.623842 C619.709521,519.606796 619.99405,519.298432 619.9767,518.935213 C619.976095,518.922146 619.975086,518.909079 619.973674,518.896079 L619.973674,510.405944 C619.973674,509.990126 619.727745,509.574242 619.341267,509.574242 L618.568311,509.574242 L618.568311,507.876216 C618.568311,503.187273 622.422199,499.386081 627.176144,499.386081 C631.930089,499.386081 635.783977,503.187273 635.783977,507.876216 L635.783977,509.574242 L635.011021,509.574242 C634.624543,509.574242 634.378614,509.99006 634.378614,510.405944 L634.378614,518.896079 C634.339408,519.257639 634.604771,519.582121 634.971344,519.620791 C634.984525,519.622184 634.997773,519.623179 635.011021,519.623776 L635.819081,519.623776 L635.748806,519.727714 C634.694548,521.109682 633.04023,521.919097 631.286788,521.910873 C630.902932,520.054385 629.065832,518.856281 627.183609,519.234955 C625.574011,519.558707 624.4135,520.949099 624.400521,522.569322 C624.419754,524.469653 625.987187,526 627.913929,526 C628.867718,525.984744 629.776853,525.598708 630.443556,524.925733 C630.893383,524.471378 631.188134,523.88987 631.286788,523.26233 C633.482592,523.270554 635.553382,522.255718 636.87307,520.524725 L637.540648,519.554396 C639.05139,519.450458 640,518.514819 640,517.163295 L640,512.831602 C640,511.34165 638.875804,509.574309 637.259616,509.574309 Z M618.568311,518.237695 L616.741365,518.237695 C615.984817,518.219521 615.386438,517.59994 615.404865,516.853737 C615.405201,516.841466 615.405671,516.829195 615.406277,516.816858 L615.406277,512.485165 C615.406277,511.688153 615.968409,510.96039 616.741365,510.96039 L618.568311,510.96039 L618.568311,518.237695 L618.568311,518.237695 Z M629.424739,523.955536 C629.035369,524.37195 628.488301,524.610404 627.913997,524.613986 C626.770903,524.596077 625.843275,523.696388 625.805952,522.569389 C625.805481,521.440201 626.733177,520.52446 627.878019,520.523996 C629.02286,520.523531 629.951296,521.438542 629.951767,522.56773 C629.951767,522.568261 629.951767,522.568858 629.951767,522.569389 C629.98102,523.083904 629.789765,523.586878 629.424739,523.955536 Z M638.594704,517.163428 C638.594704,518.099067 637.681198,518.237695 637.259616,518.237695 L635.783977,518.237695 L635.783977,510.960456 L637.259616,510.960456 C638.032572,510.960456 638.594704,512.034723 638.594704,512.831735 L638.594704,517.163428 Z" id="chat"></path>
        </g>
    </g>
</svg>