<?xml version="1.0" encoding="UTF-8"?>
<svg width="27px" height="18px" viewBox="0 0 27 18" version="1.1" xmlns="http://www.w3.org/2000/svg" xmlns:xlink="http://www.w3.org/1999/xlink">
    <title>email</title>
    <g id="Page-1" stroke="none" stroke-width="1" fill="none" fill-rule="evenodd">
        <g id="Iconography" transform="translate(-537.000000, -587.000000)" fill="#000000" fill-rule="nonzero">
            <path d="M562.615303,587 L538.384644,587 C537.623055,587 537,587.623055 537,588.384591 L537,603.615356 C537,604.376839 537.623055,605 538.384644,605 L562.615356,605 C563.376839,605 564,604.376945 564,603.615356 L564,588.384591 C564,587.623055 563.376892,587 562.615303,587 Z M562.095713,588.038391 L551.296472,596.13848 C551.102304,596.286242 550.80425,596.378685 550.499921,596.377329 C550.195644,596.378685 549.897643,596.286242 549.703422,596.13848 L538.904182,588.038391 L562.095713,588.038391 Z M556.327111,596.672942 L562.211728,603.942203 C562.217634,603.949481 562.224859,603.955018 562.231134,603.961609 L538.768813,603.961609 C538.775036,603.954701 538.782313,603.949481 538.788219,603.942203 L544.672837,596.672942 C544.853135,596.450034 544.818963,596.12324 544.595634,595.94252 C544.372726,595.762221 544.045932,595.796393 543.86558,596.019353 L538.038443,603.217634 L538.038443,588.687444 L549.080683,596.96915 C549.495755,597.278279 550.000738,597.414333 550.499868,597.415704 C550.998313,597.41465 551.503718,597.278595 551.919053,596.96915 L562.961293,588.687444 L562.961293,603.217529 L557.134314,596.019353 C556.953963,595.796446 556.626852,595.762168 556.404261,595.94252 C556.180984,596.122818 556.146707,596.450034 556.327111,596.672942 Z" id="email"></path>
        </g>
    </g>
</svg>