<svg width="199" height="52" viewBox="0 0 199 52" fill="none" xmlns="http://www.w3.org/2000/svg">
<path fill-rule="evenodd" clip-rule="evenodd" d="M54.4756 35.8654C51.9072 39.7604 47.4951 42.3323 42.4801 42.3323C34.5487 42.3323 28.1189 35.9026 28.1189 27.9711C28.1189 20.3159 34.1095 14.0612 41.6584 13.635L33.7966 0L7.07812 46.3402H60.5155L54.4756 35.8654Z" fill="#1B2238"/>
<path fill-rule="evenodd" clip-rule="evenodd" d="M52.2184 20.9226L48.6113 24.6313H51.8454L43.4826 30.6431H46.4885L35.1332 36.9886L39.9757 31.4778H36.9698L43.3153 26.1342H40.6435L48.5585 17.5985C46.775 16.5512 44.6989 15.9478 42.4806 15.9478C35.8403 15.9478 30.457 21.3306 30.457 27.9713C30.457 34.6116 35.8403 39.9945 42.4806 39.9945C49.1209 39.9945 54.5042 34.6116 54.5042 27.9713C54.5042 25.3372 53.6548 22.9031 52.2184 20.9226Z" fill="#FFC72E"/>
<path fill-rule="evenodd" clip-rule="evenodd" d="M43.3154 26.1343L36.9699 31.4779H39.9754L35.1328 36.9887L46.4881 30.6432H43.4827L51.845 24.6314H48.6113L52.2185 20.9227C51.2433 19.5775 49.9967 18.4433 48.5586 17.5986L40.6436 26.1343H43.3154Z" fill="#1B2238"/>
<path fill-rule="evenodd" clip-rule="evenodd" d="M74.542 7.8962V7.86595C74.542 4.85487 76.8118 2.38843 80.0649 2.38843C82.0619 2.38843 83.2571 3.05453 84.2405 4.02278L82.7578 5.73234C81.9409 4.99103 81.1088 4.53716 80.0498 4.53716C78.2641 4.53716 76.9782 6.02022 76.9782 7.83569V7.86595C76.9782 9.68141 78.2339 11.1947 80.0498 11.1947C81.2601 11.1947 82.0014 10.7106 82.8335 9.95373L84.3165 11.4519C83.2268 12.6168 82.0165 13.343 79.9737 13.343C76.8571 13.343 74.542 10.9375 74.542 7.8962Z" fill="#1B2238"/>
<path fill-rule="evenodd" clip-rule="evenodd" d="M92.2585 8.72835L90.8511 5.29366L89.4441 8.72835H92.2585ZM89.8072 2.49438H91.9559L96.495 13.1615H94.0588L93.0906 10.7859H88.6115L87.6433 13.1615H85.2681L89.8072 2.49438Z" fill="#1B2238"/>
<path fill-rule="evenodd" clip-rule="evenodd" d="M102.818 7.71432C103.953 7.71432 104.604 7.10916 104.604 6.21656V6.1863C104.604 5.1878 103.908 4.67298 102.773 4.67298H100.458V7.71432H102.818ZM98.1279 2.57007H102.97C104.317 2.57007 105.36 2.94829 106.056 3.64422C106.646 4.23424 106.964 5.06677 106.964 6.06527V6.09553C106.964 7.80509 106.041 8.87924 104.695 9.37893L107.282 13.1616H104.558L102.289 9.77228H102.259H100.458V13.1616H98.1279V2.57007Z" fill="#1B2238"/>
<path fill-rule="evenodd" clip-rule="evenodd" d="M113.756 7.71432C114.891 7.71432 115.542 7.10916 115.542 6.21656V6.1863C115.542 5.1878 114.846 4.67298 113.711 4.67298H111.396V7.71432H113.756ZM109.066 2.57007H113.908C115.254 2.57007 116.298 2.94829 116.994 3.64422C117.584 4.23424 117.902 5.06677 117.902 6.06527V6.09553C117.902 7.80509 116.979 8.87924 115.633 9.37893L118.22 13.1616H115.496L113.227 9.77228H113.197H111.396V13.1616H109.066V2.57007Z" fill="#1B2238"/>
<path fill-rule="evenodd" clip-rule="evenodd" d="M128.356 7.8962V7.86595C128.356 6.05005 127.024 4.53716 125.148 4.53716C123.272 4.53716 121.971 6.02022 121.971 7.83569V7.86595C121.971 9.68141 123.303 11.1947 125.178 11.1947C127.055 11.1947 128.356 9.71167 128.356 7.8962ZM119.535 7.8962V7.86595C119.535 4.85487 121.91 2.38843 125.178 2.38843C128.447 2.38843 130.792 4.82461 130.792 7.83569V7.86595C130.792 10.877 128.417 13.343 125.148 13.343C121.881 13.343 119.535 10.9073 119.535 7.8962Z" fill="#1B2238"/>
<path fill-rule="evenodd" clip-rule="evenodd" d="M132.863 2.57031H135.194V11.0433H140.474V13.1614H132.863V2.57031Z" fill="#1B2238"/>
<path fill-rule="evenodd" clip-rule="evenodd" d="M142.228 2.57031H144.558V11.0433H149.838V13.1614H142.228V2.57031Z" fill="#1B2238"/>
<path fill-rule="evenodd" clip-rule="evenodd" d="M77.4773 21.1444H74.2544V18.9961H83.03V21.1444H79.8071V29.5872H77.4773V21.1444Z" fill="#1B2238"/>
<path fill-rule="evenodd" clip-rule="evenodd" d="M84.8145 18.9958H92.8029V21.0685H87.1292V23.2172H92.1221V25.2899H87.1292V27.5143H92.879V29.5869H84.8145V18.9958Z" fill="#1B2238"/>
<path fill-rule="evenodd" clip-rule="evenodd" d="M94.4819 24.3216V24.2917C94.4819 21.2806 96.7513 18.8142 100.004 18.8142C102.001 18.8142 103.197 19.4799 104.18 20.4486L102.698 22.1581C101.88 21.4164 101.048 20.9625 99.9893 20.9625C98.2036 20.9625 96.9181 22.4456 96.9181 24.261V24.2917C96.9181 26.1072 98.1738 27.6201 99.9893 27.6201C101.2 27.6201 101.941 27.136 102.773 26.3795L104.256 27.8777C103.167 29.0426 101.956 29.7688 99.9136 29.7688C96.7967 29.7688 94.4819 27.3629 94.4819 24.3216Z" fill="#1B2238"/>
<path fill-rule="evenodd" clip-rule="evenodd" d="M106.116 18.9958H108.446V23.187H112.743V18.9958H115.073V29.5869H112.743V25.3357H108.446V29.5869H106.116V18.9958Z" fill="#1B2238"/>
<path fill-rule="evenodd" clip-rule="evenodd" d="M117.614 18.9958H119.763L124.725 25.5168V18.9958H127.025V29.5869H125.043L119.913 22.8541V29.5869H117.614V18.9958Z" fill="#1B2238"/>
<path fill-rule="evenodd" clip-rule="evenodd" d="M137.918 24.3216V24.2917C137.918 22.4754 136.586 20.9625 134.71 20.9625C132.834 20.9625 131.533 22.4456 131.533 24.261V24.2917C131.533 26.1072 132.864 27.6201 134.74 27.6201C136.616 27.6201 137.918 26.1375 137.918 24.3216ZM129.097 24.3216V24.2917C129.097 21.2806 131.472 18.8142 134.74 18.8142C138.008 18.8142 140.353 21.2504 140.353 24.261V24.2917C140.353 27.3024 137.978 29.7688 134.71 29.7688C131.442 29.7688 129.097 27.3326 129.097 24.3216Z" fill="#1B2238"/>
<path fill-rule="evenodd" clip-rule="evenodd" d="M142.425 18.9958H144.755V27.4689H150.035V29.5869H142.425V18.9958Z" fill="#1B2238"/>
<path fill-rule="evenodd" clip-rule="evenodd" d="M159.537 24.3216V24.2917C159.537 22.4754 158.205 20.9625 156.329 20.9625C154.453 20.9625 153.152 22.4456 153.152 24.261V24.2917C153.152 26.1072 154.483 27.6201 156.359 27.6201C158.235 27.6201 159.537 26.1375 159.537 24.3216ZM150.716 24.3216V24.2917C150.716 21.2806 153.091 18.8142 156.359 18.8142C159.628 18.8142 161.973 21.2504 161.973 24.261V24.2917C161.973 27.3024 159.597 29.7688 156.329 29.7688C153.061 29.7688 150.716 27.3326 150.716 24.3216Z" fill="#1B2238"/>
<path fill-rule="evenodd" clip-rule="evenodd" d="M163.575 24.3216V24.2917C163.575 21.2806 165.921 18.8142 169.128 18.8142C171.035 18.8142 172.184 19.3286 173.289 20.2666L171.821 22.0371C171.004 21.3563 170.278 20.9625 169.052 20.9625C167.358 20.9625 166.011 22.4607 166.011 24.261V24.2917C166.011 26.2282 167.343 27.6503 169.219 27.6503C170.066 27.6503 170.823 27.4385 171.413 27.0149V25.5016H169.067V23.4895H173.667V28.0891C172.578 29.0124 171.08 29.7688 169.143 29.7688C165.845 29.7688 163.575 27.4537 163.575 24.3216Z" fill="#1B2238"/>
<path fill-rule="evenodd" clip-rule="evenodd" d="M176.011 29.5869H178.341V18.9958H176.011V29.5869Z" fill="#1B2238"/>
<path fill-rule="evenodd" clip-rule="evenodd" d="M180.988 18.9958H188.977V21.0685H183.303V23.2172H188.296V25.2899H183.303V27.5143H189.053V29.5869H180.988V18.9958Z" fill="#1B2238"/>
<path fill-rule="evenodd" clip-rule="evenodd" d="M190.398 28.0439L191.775 26.3949C192.728 27.1816 193.727 27.6809 194.937 27.6809C195.891 27.6809 196.465 27.3026 196.465 26.6824V26.6517C196.465 26.0616 196.102 25.7595 194.332 25.3052C192.199 24.7606 190.822 24.1705 190.822 22.0676V22.0374C190.822 20.1156 192.365 18.8447 194.529 18.8447C196.072 18.8447 197.388 19.3289 198.463 20.1912L197.252 21.9466C196.314 21.296 195.391 20.9023 194.498 20.9023C193.606 20.9023 193.137 21.3107 193.137 21.8251V21.8558C193.137 22.5517 193.591 22.7782 195.422 23.2472C197.57 23.8074 198.781 24.579 198.781 26.4252V26.455C198.781 28.5583 197.177 29.7384 194.892 29.7384C193.288 29.7384 191.669 29.1786 190.398 28.0439Z" fill="#1B2238"/>
<path fill-rule="evenodd" clip-rule="evenodd" d="M74.542 40.7473V40.7175C74.542 37.7064 76.8874 35.24 80.0952 35.24C82.0014 35.24 83.1512 35.7544 84.2556 36.6924L82.7885 38.4629C81.9711 37.7821 81.2449 37.3883 80.0191 37.3883C78.3246 37.3883 76.9782 38.8865 76.9782 40.6868V40.7175C76.9782 42.654 78.3095 44.0761 80.1855 44.0761C81.0331 44.0761 81.7896 43.8643 82.3796 43.4407V41.9274H80.0346V39.9152H84.6338V44.5149C83.545 45.4382 82.0468 46.1946 80.1099 46.1946C76.8118 46.1946 74.542 43.8794 74.542 40.7473Z" fill="#1B2238"/>
<path fill-rule="evenodd" clip-rule="evenodd" d="M91.5624 40.5656C92.6971 40.5656 93.348 39.9605 93.348 39.0679V39.0376C93.348 38.0387 92.6521 37.5247 91.517 37.5247H89.2019V40.5656H91.5624ZM86.8716 35.4214H91.7137C93.0602 35.4214 94.1045 35.7996 94.8 36.4955C95.39 37.0856 95.7081 37.9181 95.7081 38.9166V38.9468C95.7081 40.6564 94.7853 41.7306 93.4388 42.2302L96.0259 46.0129H93.3022L91.0325 42.6236H91.0026H89.2019V46.0129H86.8716V35.4214Z" fill="#1B2238"/>
<path fill-rule="evenodd" clip-rule="evenodd" d="M106.162 40.7473V40.7175C106.162 38.9012 104.831 37.3883 102.955 37.3883C101.078 37.3883 99.7775 38.8714 99.7775 40.6868V40.7175C99.7775 42.533 101.109 44.0459 102.984 44.0459C104.861 44.0459 106.162 42.5632 106.162 40.7473ZM97.3413 40.7473V40.7175C97.3413 37.7064 99.7165 35.24 102.984 35.24C106.253 35.24 108.598 37.6762 108.598 40.6868V40.7175C108.598 43.7282 106.223 46.1946 102.955 46.1946C99.6863 46.1946 97.3413 43.7584 97.3413 40.7473Z" fill="#1B2238"/>
<path fill-rule="evenodd" clip-rule="evenodd" d="M110.503 41.4738V35.4214H112.834V41.4133C112.834 43.1384 113.696 44.0306 115.118 44.0306C116.54 44.0306 117.403 43.1682 117.403 41.4889V35.4214H119.733V41.3982C119.733 44.6059 117.933 46.1793 115.087 46.1793C112.243 46.1793 110.503 44.5908 110.503 41.4738Z" fill="#1B2238"/>
<path fill-rule="evenodd" clip-rule="evenodd" d="M126.283 40.7623C127.448 40.7623 128.129 40.0664 128.129 39.1587V39.1284C128.129 38.0845 127.402 37.5247 126.238 37.5247H124.437V40.7623H126.283ZM122.107 35.4214H126.434C128.961 35.4214 130.489 36.9191 130.489 39.083V39.1133C130.489 41.5641 128.583 42.8354 126.207 42.8354H124.437V46.0125H122.107V35.4214Z" fill="#1B2238"/>
<path fill-rule="evenodd" clip-rule="evenodd" d="M53.5074 51.7718C53.5074 51.7718 6.9956 34.8123 5.91626 20.9629C5.08244 10.2607 28.0455 15.6315 28.0455 15.6315C28.0455 15.6315 3.0703 8.60042 0.291775 17.5338C-1.77353 24.1745 7.41532 31.8137 18.6885 37.1962C34.6023 44.7943 53.5221 51.7718 53.5074 51.7718Z" fill="#FFC72E"/>
</svg>
